<svg xmlns="http://www.w3.org/2000/svg" width="586.05" height="133.38" viewBox="0 0 586.05 133.38"><path d="M0,123.61l12.76-4.81V62L.33,56.17V50.7l34.3-7.45V65L54.51,44.08c6,0,13.92,1.32,18.73,4L66.78,72.74a25.46,25.46,0,0,0-13.92-4.31,25.8,25.8,0,0,0-15.25,5v47.39L50.37,123v8.45H0Z"/><path d="M114.33,131.73c-2.82,1.16-7.79,1.65-11.43,1.65-16.91,0-25.52-11.26-25.52-24.19,0-13.75,9.94-22.2,25.18-26.18l24-6.29V66.78c0-8.79-6-12.76-12.1-12.76-7.29,0-15.07,6-15.07,17.06a18.73,18.73,0,0,0,.16,2.82H88.65L81,54.35c10.11-6.8,24.53-11.1,37.78-11.1,17.4,0,32,7.45,32,27v38.61c0,5.63,2.65,8,6.13,8a6.77,6.77,0,0,0,5.8-3l3,8.45a18.65,18.65,0,0,1-17.23,11.1c-7.79,0-16.73-4.47-16.9-17.39ZM126.59,85.5l-12.76,3.81c-9.61,2.82-14.58,9.11-14.58,15.41,0,5.47,3.81,10.77,11.93,10.77,6.46,0,12.43-3.31,15.41-7.29Z"/><path d="M171.49,123.61l12.76-4.81V62.63l-12.43-5.8V51.37l37.28-8.12v77.54L221.86,123v8.45H171.49Zm7.13-107.37C178.62,6.46,185.41,0,195.19,0s16.57,6.46,16.57,16.24S205,32.48,195.19,32.48,178.62,26,178.62,16.24Z"/><path d="M234,101.57h10.6a22,22,0,0,0,21.54,21.71c6.46,0,11.44-4.31,11.44-10.77,0-8.45-9.62-11.27-19.89-15.08-12.09-4.48-25-9.94-25-26.84,0-19.06,16.24-27.34,33.47-27.34,9.94,0,20.71,2.65,28.67,7.45l-4,17.73h-9.94C279.19,58,272.4,53.85,265.77,53.85,260.47,53.85,255,57.17,255,64c0,8.12,7.79,11.27,17.07,14.41,12.76,4.31,28.17,8.79,28.17,26.85,0,18.88-16.91,28.16-36.13,28.16-11.26,0-23.36-2.81-32.31-7.95Z"/><path d="M398.82,87.82c0,25.52-16.57,45.56-44.9,45.56-28.5,0-43.74-20.38-43.74-44.9,0-25.35,16.4-45.23,44.9-45.23C383.41,43.25,398.82,63.13,398.82,87.82Zm-28.17,3c0-23.36-5.79-38.61-17.23-38.61-10.1,0-15.08,11.93-15.08,33.47,0,23.37,5.8,38.78,17.24,38.78C365.68,124.44,370.65,112.34,370.65,90.8Z"/><path d="M406.28,123.61,419,118.8V62l-12.43-5.8V50.7l34.3-7.45V62.14L459.8,44.9a37.71,37.71,0,0,1,10.77-1.65c13.25,0,26.84,8,26.84,29.16v48.38L510.17,123v8.45H462v-8.62l10.61-4V78C472.56,66.78,467.42,62,461,62c-5.47,0-11.77,3.31-17.07,8.78v50l10.61,1.82v8.79H406.28Z"/><path d="M519.78,101.57h10.6a22,22,0,0,0,21.54,21.71c6.46,0,11.43-4.31,11.43-10.77,0-8.45-9.61-11.27-19.88-15.08-12.09-4.48-25-9.94-25-26.84,0-19.06,16.24-27.34,33.47-27.34,9.94,0,20.71,2.65,28.67,7.45l-4,17.73h-9.94C565,58,558.22,53.85,551.59,53.85c-5.3,0-10.77,3.32-10.77,10.11,0,8.12,7.79,11.27,17.07,14.41,12.76,4.31,28.16,8.79,28.16,26.85,0,18.88-16.9,28.16-36.12,28.16-11.26,0-23.36-2.81-32.31-7.95Z"/></svg>